# xmcd
#
# Track frame offsets: 
#        150
#        15267
#        38957
#        54992
#        72320
#        87752
#        103470
#        122117
#        136395
#        151980
#
# Disc length: 2252 seconds
#
# Revision: 2
# Processed by: cddbd v1.5.2PL0 Copyright (c) Steve Scherf et al.
# Submitted via: ExactAudioCopy v0.95b4
#
DISCID=8008ca0a
DTITLE=Al Green - One In A Million
DYEAR=1991
DGENRE=Soul
TTITLE0=Too Close
TTITLE1=Where Love Rules
TTITLE2=Amazing Grace
TTITLE3=Saved
TTITLE4=The Old Rugged Cross
TTITLE5=The Lord Will Make A Way
TTITLE6=No Not One
TTITLE7=Pass Me Not
TTITLE8=In The Holy Name Of Jesus
TTITLE9=None But The Righteous
EXTD=
EXTT0=
EXTT1=
EXTT2=
EXTT3=
EXTT4=
EXTT5=
EXTT6=
EXTT7=
EXTT8=
EXTT9=
PLAYORDER=
